<svg width="15" height="14" viewBox="0 0 15 14" fill="none" xmlns="http://www.w3.org/2000/svg">
<path d="M13.6257 7.136C13.6257 6.63239 13.584 6.26489 13.4938 5.88379H7.62573V8.15682H11.0701C11.0007 8.7217 10.6257 9.57239 9.79238 10.144L9.7807 10.2201L11.6361 11.6287L11.7646 11.6413C12.9451 10.5728 13.6257 9.00071 13.6257 7.136Z" fill="#4285F4"/>
<path d="M7.62532 13.1251C9.31279 13.1251 10.7294 12.5806 11.7642 11.6415L9.79196 10.1442C9.2642 10.5049 8.55585 10.7567 7.62532 10.7567C5.97256 10.7567 4.5698 9.68824 4.06975 8.21143L3.99646 8.21753L2.06722 9.68074L2.04199 9.74947C3.06976 11.7503 5.18086 13.1251 7.62532 13.1251Z" fill="#34A853"/>
<path d="M4.07015 8.21136C3.93821 7.83025 3.86185 7.42189 3.86185 6.99997C3.86185 6.57799 3.93821 6.16968 4.06321 5.78857L4.05971 5.70741L2.10629 4.2207L2.04238 4.2505C1.61879 5.08078 1.37573 6.01316 1.37573 6.99997C1.37573 7.98677 1.61879 8.9191 2.04238 9.74939L4.07015 8.21136Z" fill="#FBBC05"/>
<path d="M7.62535 3.24332C8.79894 3.24332 9.5906 3.74012 10.042 4.15529L11.8059 2.4675C10.7226 1.4807 9.31283 0.875 7.62535 0.875C5.18088 0.875 3.06976 2.24971 2.04199 4.25053L4.06282 5.7886C4.56981 4.3118 5.97258 3.24332 7.62535 3.24332Z" fill="#EB4335"/>
</svg>
